<svg width="512" height="512" viewBox="0 0 512 512" fill="none" xmlns="http://www.w3.org/2000/svg">
<g clip-path="url(#clip0_4965_2)">
<circle cx="256" cy="256" r="256" fill="white"/>
<g clip-path="url(#clip1_4965_2)">
<path opacity="0.8" d="M361.642 275.451L235.477 149.811L171.611 86.188C165.239 83.4123 158.363 81.9864 151.414 82C120.665 82 95.6621 110.269 95.0005 145.378V297.089C94.89 305.646 96.4625 314.141 99.6282 322.088C102.794 330.036 107.491 337.281 113.45 343.41C119.41 349.538 126.516 354.43 134.362 357.806C142.209 361.182 150.642 362.975 159.18 363.085H335.977C346.362 357.984 355.122 350.083 361.273 340.268C367.425 330.453 370.724 319.114 370.8 307.524C370.795 296.186 367.622 285.075 361.642 275.451Z" fill="#E62C5A"/>
<path opacity="0.8" d="M351.856 149.915H175.093C164.708 155.016 155.948 162.917 149.797 172.732C143.645 182.547 140.346 193.886 140.27 205.476C140.259 216.818 143.407 227.938 149.359 237.584L275.523 363.224L339.563 426.812C345.905 429.57 352.743 430.995 359.656 431C390.37 431 415.373 402.766 416.035 367.657V215.876C416.249 198.601 409.608 181.948 397.573 169.578C385.537 157.209 369.093 150.136 351.856 149.915Z" fill="#4B56C0"/>
<path opacity="0.5" d="M149.359 237.584L275.523 363.224H335.976C346.361 358.124 355.121 350.222 361.273 340.408C367.424 330.593 370.723 319.254 370.799 307.663C370.805 296.329 367.644 285.218 361.676 275.59L235.511 149.95H175.093C164.714 155.048 155.957 162.944 149.806 172.752C143.655 182.56 140.353 193.892 140.27 205.476C140.259 216.818 143.407 227.938 149.359 237.584Z" fill="#501B8D"/>
</g>
</g>
<defs>
<clipPath id="clip0_4965_2">
<rect width="512" height="512" fill="white"/>
</clipPath>
<clipPath id="clip1_4965_2">
<rect width="321" height="349" fill="white" transform="translate(95 82)"/>
</clipPath>
</defs>
</svg>
